<?xml version="1.0" encoding="utf-8"?><!-- Uploaded to: SVG Repo, www.svgrepo.com, Generator: SVG Repo Mixer Tools -->
<svg fill="#000000" width="800px" height="800px" viewBox="0 0 24 24" id="text-size" data-name="Flat Color" xmlns="http://www.w3.org/2000/svg" class="icon flat-color"><path id="secondary" d="M21,9H13a1,1,0,0,0-1,1v2a1,1,0,0,0,2,0V11h2v8H15a1,1,0,0,0,0,2h4a1,1,0,0,0,0-2H18V11h2v1a1,1,0,0,0,2,0V10A1,1,0,0,0,21,9Z" style="fill: rgb(44, 169, 188);"></path><path id="primary" d="M13,3H3A1,1,0,0,0,2,4V6A1,1,0,0,0,4,6V5H7V19H6a1,1,0,0,0,0,2h4a1,1,0,0,0,0-2H9V5h3V6a1,1,0,0,0,2,0V4A1,1,0,0,0,13,3Z" style="fill: rgb(0, 0, 0);"></path></svg>